<?xml version="1.0" encoding="iso-8859-1"?>
<!-- Generator: Adobe Illustrator 19.0.0, SVG Export Plug-In . SVG Version: 6.00 Build 0)  -->
<svg version="1.1" id="Layer_1" xmlns="http://www.w3.org/2000/svg" xmlns:xlink="http://www.w3.org/1999/xlink" x="0px" y="0px"
	 viewBox="0 0 502 502" style="enable-background:new 0 0 502 502;" xml:space="preserve">
<g>
	<g>
		<g>
			<path d="M497,0H5C2.239,0,0,2.239,0,5v492c0,2.761,2.239,5,5,5h492c2.762,0,5-2.239,5-5V5C502,2.239,499.762,0,497,0z M492,492
				H10V10h482V492z"/>
			<path d="M169.817,417.314h162.366c46.941,0,85.13-38.189,85.13-85.132V169.817c0-46.942-38.19-85.132-85.131-85.132H169.817
				c-46.942,0-85.132,38.19-85.132,85.132v162.365C84.685,379.124,122.875,417.314,169.817,417.314z M94.685,169.818
				c0-41.428,33.704-75.132,75.132-75.132v-0.001h162.365c41.428,0,75.131,33.704,75.131,75.132v162.366
				c0,41.428-33.703,75.132-75.131,75.132H169.817c-41.428,0-75.132-33.704-75.132-75.132V169.818z"/>
			<path d="M169.817,465.467h162.366c73.494,0,133.285-59.791,133.284-133.285V169.817c0-73.493-59.791-133.285-133.285-133.285
				H169.817c-73.493,0-133.285,59.792-133.285,133.285v162.365C36.532,405.675,96.324,465.467,169.817,465.467z M46.532,169.818
				c0-67.98,55.306-123.285,123.285-123.285v-0.001h162.365c67.979,0,123.285,55.306,123.285,123.285v162.366
				c0,67.98-55.306,123.285-123.285,123.285H169.817c-67.98,0-123.285-55.306-123.285-123.285V169.818z"/>
			<path d="M350.968,173c12.113,0,21.968-9.854,21.968-21.968s-9.854-21.968-21.968-21.968c-12.114,0-21.968,9.854-21.968,21.968
				S338.854,173,350.968,173z M350.968,139.064c6.598,0,11.968,5.369,11.968,11.968S357.567,163,350.968,163
				S339,157.631,339,151.032S344.369,139.064,350.968,139.064z"/>
			<path d="M175.333,381c2.762,0,5-2.239,5-5s-2.239-5-5-5C150.888,371,131,351.112,131,326.666V236c0-2.761-2.239-5-5-5
				s-5,2.239-5,5v90.667C121,356.626,145.374,381,175.333,381z"/>
			<path d="M126,200c2.761,0,5-2.239,5-5v-19.667c0-2.761-2.239-5-5-5s-5,2.239-5,5V195C121,197.761,123.239,200,126,200z"/>
			<path d="M327.922,217.027c0.827,1.865,2.656,2.974,4.573,2.974c0.677,0,1.365-0.138,2.025-0.431
				c2.524-1.119,3.663-4.074,2.543-6.598c-3.542-7.986-8.187-15.448-13.805-22.179c-1.77-2.119-4.922-2.404-7.043-0.634
				c-2.12,1.769-2.405,4.922-0.635,7.042C320.604,203.219,324.756,209.89,327.922,217.027z"/>
			<path d="M251,199.287c-28.514,0-51.713,23.199-51.713,51.713s23.198,51.713,51.713,51.713s51.714-23.199,51.714-51.713
				S279.514,199.287,251,199.287z M251,292.713c-23.001,0-41.713-18.712-41.713-41.713s18.712-41.713,41.713-41.713
				c23.001,0,41.714,18.712,41.714,41.713S274.001,292.713,251,292.713z"/>
			<path d="M251,345.092c51.883,0,94.092-42.21,94.093-94.092c0-2.761-2.238-5-5-5c-2.762,0-5,2.239-5,5
				c0,46.368-37.724,84.092-84.092,84.092c-46.368,0-84.092-37.724-84.092-84.092c0-46.368,37.724-84.092,84.092-84.092
				c12.534,0,24.599,2.704,35.86,8.036c2.495,1.181,5.476,0.117,6.658-2.379c1.183-2.496,0.117-5.477-2.379-6.659
				c-12.61-5.971-26.115-8.998-40.14-8.998c-51.883,0-94.092,42.209-94.092,94.092S199.118,345.092,251,345.092z"/>
		</g>
	</g>
</g>
<g>
</g>
<g>
</g>
<g>
</g>
<g>
</g>
<g>
</g>
<g>
</g>
<g>
</g>
<g>
</g>
<g>
</g>
<g>
</g>
<g>
</g>
<g>
</g>
<g>
</g>
<g>
</g>
<g>
</g>
</svg>
